<svg width="20" height="20" viewBox="0 0 20 20" fill="none" xmlns="http://www.w3.org/2000/svg">
    <path d="M0.399902 9.99941C0.399902 14.7514 3.8559 18.6874 8.4159 19.5034L8.47263 19.457C8.46972 19.4565 8.46681 19.4559 8.4639 19.4554V12.6874H6.0639V9.99941H8.4639V7.88741C8.4639 5.48741 9.9999 4.14341 12.2079 4.14341C12.8799 4.14341 13.6479 4.23941 14.3199 4.33541V6.78341H13.0719C11.9199 6.78341 11.6319 7.35941 11.6319 8.12741V9.99941H14.1759L13.7439 12.6874H11.6319V19.4554C11.6027 19.4607 11.5734 19.4659 11.5442 19.4709L11.5839 19.5034C16.1439 18.6874 19.5999 14.7514 19.5999 9.99941C19.5999 4.71941 15.2799 0.399414 9.9999 0.399414C4.7199 0.399414 0.399902 4.71941 0.399902 9.99941Z"
          fill="currentColor"/>
</svg>
