<svg width="18" height="18" viewBox="0 0 18 18" fill="none" xmlns="http://www.w3.org/2000/svg">
    <path fill-rule="evenodd" clip-rule="evenodd"
          d="M15.8444 17.8007H2.15551C1.07548 17.8007 0.199951 16.9252 0.199951 15.8451V2.15624C0.199951 1.07622 1.07548 0.200684 2.15551 0.200684H15.8444C16.9244 0.200684 17.8 1.07622 17.8 2.15624V15.8451C17.8 16.9252 16.9244 17.8007 15.8444 17.8007ZM12.7439 15.3562H15.3556V9.9909C15.3556 7.7208 14.0688 6.62319 12.2714 6.62319C10.4731 6.62319 9.71631 8.02354 9.71631 8.02354V6.88208H7.19933V15.3562H9.71631V10.9078C9.71631 9.71587 10.265 9.0066 11.3151 9.0066C12.2805 9.0066 12.7439 9.68816 12.7439 10.9078V15.3562ZM2.64451 4.20876C2.64451 5.07229 3.33924 5.77247 4.19658 5.77247C5.05392 5.77247 5.74823 5.07229 5.74823 4.20876C5.74823 3.34522 5.05392 2.64505 4.19658 2.64505C3.33924 2.64505 2.64451 3.34522 2.64451 4.20876ZM5.52148 15.3562H2.89692V6.88208H5.52148V15.3562Z"
          fill="currentColor"/>
</svg>
