<svg width="20" height="15" viewBox="0 0 20 15" fill="none" xmlns="http://www.w3.org/2000/svg">
    <path fill-rule="evenodd" clip-rule="evenodd"
          d="M17.5011 1.00203C18.3277 1.22331 18.9773 1.8729 19.1986 2.6995C19.5984 4.19624 19.6 7.3209 19.6 7.3209C19.6 7.3209 19.6 10.4456 19.1986 11.9423C18.9773 12.7689 18.3277 13.4185 17.5011 13.6397C16.0044 14.0412 9.99999 14.0412 9.99999 14.0412C9.99999 14.0412 3.99567 14.0412 2.49893 13.6397C1.67233 13.4185 1.02274 12.7689 0.801473 11.9423C0.400024 10.4456 0.400024 7.3209 0.400024 7.3209C0.400024 7.3209 0.400024 4.19624 0.801473 2.6995C1.02274 1.8729 1.67233 1.22331 2.49893 1.00203C3.99567 0.600586 9.99999 0.600586 9.99999 0.600586C9.99999 0.600586 16.0044 0.600586 17.5011 1.00203ZM13.0662 7.32091L8.07815 10.2006V4.44121L13.0662 7.32091Z"
          fill="currentColor"/>
</svg>
